<?xml version="1.0" encoding="iso-8859-1"?>
<!-- Generator: Adobe Illustrator 21.0.0, SVG Export Plug-In . SVG Version: 6.00 Build 0)  -->
<svg version="1.1" xmlns="http://www.w3.org/2000/svg" xmlns:xlink="http://www.w3.org/1999/xlink" x="0px" y="0px"
	 viewBox="0 0 120 120" style="enable-background:new 0 0 120 120;" xml:space="preserve">
<g id="artstyledefault_x5F_lefteye_x5F_101_x5F_front_x5F_default">
	<g>
		<path style="fill:#D8D8D8;"  fill-opacity="1" d="M99.528,47.018c0,0-6.849-14.171-24.01-14.171c-9.188,0-21.256,4.937-30.006,15.082
			c0,0,5.603-4.24,12.625-6.935C69.884,36.486,87.085,34.101,99.528,47.018"/>
		<g>
			<g>
				<g>
					<g>
						<path style="fill:#D8D8D8;" d="M95.254,82.335c-9.165,7.629-34.96,12.559-50.392-6.889c-4.67-5.885-7.579-11.185-2.761-19.745
							c7.082-12.581,38.271-21.387,57.296-6.188C113.488,60.772,98.466,79.662,95.254,82.335z"/>
					</g>
				</g>
			</g>
		</g>
		<g>
			<g>
				<g>
					<g>
						<path style="fill:#FFFFFF;" d="M42.214,62.636c0.53,7.213,2.55,12.349,4.903,14.907c11.841,12.876,41.957,11.185,48.137,4.791
							c7.062-7.306,8.917-22.92-0.688-32.028c-12.36-11.72-19.985-0.064-30.166-2.988C51.668,43.662,41.419,51.81,42.214,62.636z"/>
					</g>
				</g>
			</g>
		</g>
		<g>
			<g>
				<g>
					<g>
						<path style="fill:#E5E5E5;" d="M68.216,60.672C48,60.559,42.804,67.28,42.804,67.28c-1.323-5.016-0.644-12.406,0.604-13.139
							c12.704-7.457,37.704-11.524,52.004,0.517c0.994,0.837,2.306,5.677-0.249,4.151C81.714,50.775,79.066,60.733,68.216,60.672z"
							/>
					</g>
				</g>
			</g>
		</g>
		<g>
			<g>
				<g>
					<g>
						<path style="fill:#E5E5E5;" d="M74.749,48.72c-1.344-0.099-20.042,11.223-14.698,11.708c0,0,32.281-0.483,40.085,10.304
							C101.125,53.408,90.766,49.9,74.749,48.72z"/>
					</g>
				</g>
			</g>
		</g>
		<g>
			<g id="XMLID_38_">
				<g>
					<g>
						<g>
							<path style="fill:#7F7F7F;" d="M57.128,57.949c-3.621,9.484-0.326,18.431,8.719,21.496c6.9,2.337,16.733,1.352,22.048-8.682
								c4.754-8.976-0.663-19.649-9.623-22.949S60.749,48.465,57.128,57.949z"/>
						</g>
					</g>
				</g>
			</g>
			<g id="XMLID_37_">
				<g>
					<g>
						<g>
							<path style="fill:#A5A5A5;" d="M56.517,62.598c-1.998,7.569,4.387,14.63,9.611,17.632c4.645,2.505,18.351-0.58,20.454-5.897
								C93.592,56.605,61.285,47.654,56.517,62.598z"/>
						</g>
					</g>
				</g>
			</g>

				<ellipse transform="matrix(0.9539 -0.3 0.3 0.9539 -18.7112 26.2694)" style="fill:#D8D8D8;" cx="76.194" cy="74.07" rx="10.029" ry="7.044"/>

				<ellipse transform="matrix(0.1772 -0.9842 0.9842 0.1772 -3.4136 124.4009)" style="fill:none;stroke:#191919;stroke-width:3;stroke-miterlimit:10;" cx="72.695" cy="64.242" rx="17.725" ry="17.725"/>

				<ellipse transform="matrix(0.1772 -0.9842 0.9842 0.1772 -3.4136 124.4009)" style="fill:#191919;" cx="72.695" cy="64.242" rx="8.482" ry="8.482"/>
			<g>
				<g>
					<g>
						<g>
							<path style="fill:#FFFFFF;" d="M62.087,55.611c-0.995,2.924,0.58,6.061,3.517,7.006c2.938,0.945,6.126-0.659,7.121-3.581
								c0.995-2.924-0.58-6.061-3.517-7.006C66.271,51.084,63.082,52.687,62.087,55.611z"/>
						</g>
					</g>
				</g>
			</g>
		</g>
		<g>
			<g>
				<g>
					<g>
						<path style="fill:#333333;" d="M101.41,64.904c0,0-2.929-12.85-29.776-13.25c-24.298-0.362-29.42,10.982-29.42,10.982
							s-1.933-3.981-0.113-6.935c10.044-16.302,44.974-16.399,56.383-5.134C103.218,55.243,101.41,64.904,101.41,64.904z"/>
					</g>
				</g>
			</g>
		</g>
		<path style="fill:#999999;" d="M99.528,47.018c0,0-7.633-12.854-27.67-10.527c-7.43,0.863-18.363,3.889-26.346,11.438
			c0,0,9.44-8.5,28.659-9.065C86.9,38.489,95.254,42.703,99.528,47.018z"/>
		<path style="fill:#333333;" d="M46.934,54.188c0.84,0.181,0.854,2.465-0.023,3.437c-3.645,4.04-2.607,16.671,1.089,20.819
			c0,0-6.638-4.742-6.245-17.289C41.755,61.156,42.566,53.247,46.934,54.188z"/>
		<path style="fill:#333333;" d="M95.854,57.327c0,0-1.439-0.528,0.616,1.009c3.644,2.726,4.252,17.32-1.216,23.999
			c0,0,9.246-7.889,6.166-24.752L95.854,57.327z"/>
	</g>
	<g>
		<path style="fill:#D8D8D8;" d="M144.547,47.018c0,0,6.849-14.171,24.01-14.171c9.188,0,21.256,4.937,30.006,15.082
			c0,0-5.603-4.24-12.625-6.935C174.191,36.486,156.99,34.101,144.547,47.018"/>
		<g>
			<g>
				<g>
					<g>
						<path style="fill:#D8D8D8;" d="M148.82,82.335c9.165,7.629,34.96,12.559,50.392-6.889c4.67-5.885,7.579-11.185,2.761-19.745
							c-7.082-12.581-38.271-21.387-57.296-6.188C130.587,60.772,145.609,79.662,148.82,82.335z"/>
					</g>
				</g>
			</g>
		</g>
		<g>
			<g>
				<g>
					<g>
						<path style="fill:#FFFFFF;" d="M201.86,62.636c-0.53,7.213-2.55,12.349-4.903,14.907
							c-11.841,12.876-41.957,11.185-48.137,4.791c-7.062-7.306-8.917-22.92,0.688-32.028c12.36-11.72,19.985-0.064,30.166-2.988
							C192.407,43.662,202.655,51.81,201.86,62.636z"/>
					</g>
				</g>
			</g>
		</g>
		<g>
			<g>
				<g>
					<g>
						<path style="fill:#E5E5E5;" d="M175.858,60.672c20.217-0.114,25.412,6.608,25.412,6.608
							c1.323-5.016,0.644-12.406-0.604-13.139c-12.704-7.457-37.704-11.524-52.004,0.517c-0.994,0.837-2.306,5.677,0.249,4.151
							C162.36,50.775,165.009,60.733,175.858,60.672z"/>
					</g>
				</g>
			</g>
		</g>
		<g>
			<g>
				<g>
					<g>
						<path style="fill:#E5E5E5;" d="M169.326,48.72c1.344-0.099,20.042,11.223,14.698,11.708c0,0-32.281-0.483-40.085,10.304
							C142.95,53.408,153.309,49.9,169.326,48.72z"/>
					</g>
				</g>
			</g>
		</g>
		<g>
			<g id="XMLID_16_">
				<g>
					<g>
						<g>
							<path style="fill:#7F7F7F;" d="M186.947,57.949c3.621,9.484,0.326,18.431-8.719,21.496c-6.9,2.337-16.733,1.352-22.048-8.682
								c-4.754-8.976,0.663-19.649,9.623-22.949C174.762,44.515,183.325,48.465,186.947,57.949z"/>
						</g>
					</g>
				</g>
			</g>
			<g id="XMLID_15_">
				<g>
					<g>
						<g>
							<path style="fill:#A5A5A5;" d="M187.557,62.598c1.998,7.569-4.387,14.63-9.611,17.632c-4.645,2.505-18.351-0.58-20.454-5.897
								C150.483,56.605,182.789,47.654,187.557,62.598z"/>
						</g>
					</g>
				</g>
			</g>

				<ellipse transform="matrix(0.3 -0.9539 0.9539 0.3 46.8592 211.9975)" style="fill:#D8D8D8;" cx="167.881" cy="74.07" rx="7.044" ry="10.029"/>

				<ellipse transform="matrix(0.9842 -0.1772 0.1772 0.9842 -8.6725 31.3902)" style="fill:none;stroke:#191919;stroke-width:3;stroke-miterlimit:10;" cx="171.379" cy="64.242" rx="17.725" ry="17.725"/>

				<ellipse transform="matrix(0.9842 -0.1772 0.1772 0.9842 -8.6725 31.3902)" style="fill:#191919;" cx="171.379" cy="64.242" rx="8.482" ry="8.482"/>
			<g>
				<g>
					<g>
						<g>
							<path style="fill:#FFFFFF;" d="M181.988,55.611c0.995,2.924-0.58,6.061-3.517,7.006c-2.938,0.945-6.126-0.659-7.121-3.581
								c-0.995-2.924,0.58-6.061,3.517-7.006C177.804,51.084,180.993,52.687,181.988,55.611z"/>
						</g>
					</g>
				</g>
			</g>
		</g>
		<g>
			<g>
				<g>
					<g>
						<path style="fill:#333333;" d="M142.664,64.904c0,0,2.929-12.85,29.776-13.25c24.298-0.362,29.42,10.982,29.42,10.982
							s1.933-3.981,0.113-6.935c-10.044-16.302-44.974-16.399-56.383-5.134C140.856,55.243,142.664,64.904,142.664,64.904z"/>
					</g>
				</g>
			</g>
		</g>
		<path style="fill:#999999;" d="M144.547,47.018c0,0,7.633-12.854,27.67-10.527c7.43,0.863,18.363,3.889,26.346,11.438
			c0,0-9.44-8.5-28.659-9.065C157.175,38.489,148.82,42.703,144.547,47.018z"/>
		<path style="fill:#333333;" d="M197.141,54.188c-0.84,0.181-0.854,2.465,0.023,3.437c3.645,4.04,2.607,16.671-1.089,20.819
			c0,0,6.638-4.742,6.245-17.289C202.32,61.156,201.509,53.247,197.141,54.188z"/>
		<path style="fill:#333333;" d="M148.221,57.327c0,0,1.439-0.528-0.616,1.009c-3.644,2.726-4.252,17.32,1.216,23.999
			c0,0-9.246-7.889-6.166-24.752L148.221,57.327z"/>
	</g>
</g>
<g id="&#x56FE;&#x5C42;_1">
</g>
</svg>
