<?xml version="1.0" encoding="UTF-8"?>
<svg xmlns:xlink="http://www.w3.org/1999/xlink" height="262px" version="1.1" viewBox="0 0 262 262"
    width="262px" xmlns="http://www.w3.org/2000/svg">
    <!-- Generator: Sketch 52.5 (67469) - http://www.bohemiancoding.com/sketch -->
    <title>分组@3x</title>
    <desc>Created with Sketch.</desc>
    <g fill="none" fill-rule="evenodd" id="Page-1" stroke="none" stroke-width="1">
        <g id="分组" stroke-width="1.6" transform="translate(1.000000, 1.000000)">
            <path
                d="M260,7.95924431 L260,252.040756 C260,256.433839 256.433757,260 252.031661,260 L7.95942621,260 C3.56624285,260 0,256.433839 0,252.040756 L0,7.95924431 C0,3.56616135 3.56624285,0 7.95942621,0 L252.031661,0 C256.433757,0 260,3.56616135 260,7.95924431"
                fill="#E24F4F" id="Fill-1" opacity="0" stroke="#000000"></path>
            <path class="brick0"
                d="M21.0899949,86.5950927 L22.7430376,86.5950927 C32.3274967,86.5950927 35.3466162,86.7971897 32.691186,91.0103652 C31.1268237,93.4693783 30.3336821,96.6382199 30.3336821,99.5900312 C30.3336821,106.758005 36.1576932,112.56705 43.3308423,112.56705 C50.5039914,112.56705 56.3349774,106.758005 56.3349774,99.5900312 C56.3349774,96.6382199 55.5408394,93.4693783 53.9754807,91.0103652 C51.3170612,86.7971897 54.3311987,86.5950927 63.918647,86.5950927 L86.4952843,86.5950927 C86.5889468,86.5950927 86.6666667,86.5194307 86.6666667,86.4248533 L86.6666667,63.8646524 C86.6666667,54.3013811 86.4643956,51.2788857 82.2426103,53.9360136 C79.7994152,55.4920612 76.6178809,56.2934804 73.6585459,56.2934804 C66.4903789,56.2934804 60.6653713,50.4724886 60.6653713,43.2965508 C60.6653713,36.1255907 66.4903789,30.30659 73.6585459,30.30659 C76.6178809,30.30659 79.7994152,31.1060181 82.2426103,32.6590791 C86.4643956,35.3122248 86.6666667,32.292716 86.6666667,22.7334269 L86.6666667,0.17023937 C86.6666667,0.075661942 86.5889468,0 86.4952843,0 L7.21200903,0 C3.22936188,0 0,3.22558806 0,7.20580443 L0,86.4248533 C0,86.5194307 0.0767235003,86.5950927 0.170385955,86.5950927 L21.0899949,86.5950927 Z"
                fill-opacity="0.4" id="Stroke-5" stroke="#575757" stroke-linecap="round"
                stroke-linejoin="round"></path>
            <path class="brick1"
                d="M86.5403229,0 L86.5403229,21.0862784 L86.5403229,22.7522169 C86.5403229,32.3204035 86.3374691,35.342408 82.1035207,32.6870694 C79.654286,31.1317284 76.4625863,30.3316395 73.4957247,30.3316395 C66.3069059,30.3316395 60.4651163,36.1554498 60.4651163,43.332337 C60.4651163,50.514206 66.3069059,56.3410054 73.4957247,56.3410054 C76.4625863,56.3410054 79.654286,55.5379274 82.1035207,53.9815901 C86.3374691,51.3222659 86.5403229,54.3462632 86.5403229,63.9174389 L86.5403229,86.6666667 L109.356878,86.6666667 C118.957958,86.6666667 121.983778,86.465399 119.323695,82.2527266 C117.755825,79.78371 116.956401,76.6271949 116.956401,73.667962 C116.956401,66.497053 122.797191,60.6652717 130.000999,60.6652717 C137.195814,60.6652717 143.0416,66.497053 143.0416,73.667962 C143.0416,76.6271949 142.241177,79.78371 140.671309,82.2527266 C138.017222,86.465399 141.034047,86.6666667 150.64512,86.6666667 L173.456679,86.6666667 L173.456679,63.9174389 C173.456679,54.3462632 173.661532,51.3222659 177.891483,53.9815901 C180.359704,55.5379274 183.539412,56.3410054 186.496281,56.3410054 C193.6851,56.3410054 199.534884,50.514206 199.534884,43.332337 C199.534884,36.1554498 193.6851,30.3316395 186.496281,30.3316395 C183.539412,30.3316395 180.359704,31.1317284 177.891483,32.6870694 C173.661532,35.342408 173.456679,32.3204035 173.456679,22.7522169 L173.456679,21.0862784 L173.456679,0 L86.5403229,0 Z"
                fill-opacity="0.4" id="Stroke-9" stroke="#575757" stroke-linecap="round"
                stroke-linejoin="round"></path>
            <path class="brick8"
                d="M260,252.795 L260,173.576836 C260,173.482256 259.923277,173.405596 259.829616,173.405596 L237.259217,173.405596 C227.666897,173.405596 224.659769,173.206481 227.318157,168.999167 C228.870545,166.536106 229.666667,163.368176 229.666667,160.42226 C229.666667,153.246132 223.83774,147.43295 216.675634,147.43295 C209.4936,147.43295 203.666667,153.246132 203.666667,160.42226 C203.666667,163.368176 204.464781,166.536106 206.019161,168.999167 C208.685522,173.206481 205.66544,173.405596 196.085077,173.405596 L194.43305,173.405596 L173.503717,173.405596 C173.410056,173.405596 173.333333,173.482256 173.333333,173.576836 L173.333333,196.130666 C173.333333,205.703152 173.538591,208.724732 177.756342,206.068529 C180.216448,204.50348 183.387982,203.708013 186.336323,203.708013 C193.503411,203.708013 199.336323,209.532146 199.336323,216.703296 C199.336323,223.870464 193.503411,229.695593 186.336323,229.695593 C183.387982,229.695593 180.216448,228.905103 177.756342,227.334081 C173.538591,224.689825 173.333333,227.70344 173.333333,237.27493 L173.333333,259.829756 C173.333333,259.924336 173.410056,260 173.503717,260 L252.788074,260 C256.771672,260 260,256.774326 260,252.795 Z"
                fill-opacity="0.4" id="Stroke-13" stroke="#575757" stroke-linecap="round"
                stroke-linejoin="round"></path>
            <path class="brick2"
                d="M173.333333,22.7334269 C173.333333,32.2937115 173.538591,35.3132203 177.755346,32.6600746 C180.216448,31.1060181 183.387982,30.30659 186.336323,30.30659 C193.503411,30.30659 199.336323,36.1255907 199.336323,43.2965508 C199.336323,50.4724886 193.503411,56.294476 186.336323,56.294476 C183.387982,56.294476 180.216448,55.4920612 177.755346,53.9370091 C173.538591,51.2798812 173.333333,54.3013811 173.333333,63.8646524 L173.333333,86.4258488 C173.333333,86.5194307 173.410056,86.5950927 173.503717,86.5950927 L194.43305,86.5950927 L196.085077,86.5950927 C205.66544,86.5950927 208.684525,86.7981852 206.019161,91.0103652 C204.464781,93.4703739 203.666667,96.6382199 203.666667,99.5900312 C203.666667,106.758005 209.4936,112.56705 216.675634,112.56705 C223.83774,112.56705 229.666667,106.758005 229.666667,99.5900312 C229.666667,96.6382199 228.870545,93.4703739 227.318157,91.0103652 C224.659769,86.7981852 227.666897,86.5950927 237.259217,86.5950927 L259.829616,86.5950927 C259.923277,86.5950927 260,86.5194307 260,86.4258488 L260,7.20580443 C260,3.22558806 256.771672,0 252.788074,0 L173.503717,0 C173.410056,0 173.333333,0.075661942 173.333333,0.171234921 L173.333333,22.7334269 Z"
                fill-opacity="0.4" id="Stroke-17" stroke="#575757" stroke-linecap="round"
                stroke-linejoin="round"></path>
            <path class="brick5"
                d="M160.148512,142.997011 C163.106224,142.997011 166.288535,142.200889 168.74714,140.649498 C172.974582,137.985131 173.175223,141.015176 173.175223,150.583582 L173.175223,173.333333 L195.968474,173.333333 C205.566315,173.333333 208.590908,173.134054 205.920682,168.924274 C204.362467,166.459186 203.563895,163.287652 203.563895,160.339312 C203.563895,153.157278 209.400461,147.339312 216.596596,147.339312 C223.77077,147.339312 229.611328,153.157278 229.611328,160.339312 C229.611328,163.287652 228.813754,166.459186 227.258534,168.924274 C224.595296,173.134054 227.60791,173.333333 237.21773,173.333333 L260,173.333333 L260,86.6666667 L237.21773,86.6666667 C227.60791,86.6666667 224.595296,86.8689354 227.258534,91.0846938 C228.813754,93.5467924 229.611328,96.7183261 229.611328,99.6726451 C229.611328,106.846708 223.77077,112.660688 216.596596,112.660688 C209.400461,112.660688 203.563895,106.846708 203.563895,99.6726451 C203.563895,96.7183261 204.362467,93.5467924 205.920682,91.0846938 C208.590908,86.8689354 205.566315,86.6666667 195.968474,86.6666667 L173.175223,86.6666667 L173.175223,107.760405 L173.175223,109.420403 C173.175223,118.990802 172.974582,122.009887 168.74714,119.353491 C166.288535,117.796122 163.106224,117.002989 160.148512,117.002989 C152.961361,117.002989 147.131783,122.820955 147.131783,130.005978 C147.131783,137.176056 152.961361,142.997011 160.148512,142.997011 Z"
                fill-opacity="0.4" id="Stroke-21" stroke="#575757" stroke-linecap="round"
                stroke-linejoin="round"></path>
            <path class="brick4"
                d="M143.00563,186.255659 C143.00563,183.299679 142.207506,180.141725 140.642147,177.684212 C137.995685,173.470621 141.003844,173.271632 150.587307,173.271632 L173.333333,173.271632 L173.333333,150.555058 C173.333333,141.000605 173.133055,137.974978 168.913263,140.634465 C166.460103,142.184589 163.283551,142.97955 160.330195,142.97955 C153.157046,142.97955 147.33702,137.167083 147.33702,130.007462 C147.33702,122.832917 153.157046,117.023435 160.330195,117.023435 C163.283551,117.023435 166.460103,117.815411 168.913263,119.37051 C173.133055,122.022037 173.333333,119.00835 173.333333,109.451907 L173.333333,86.7313524 L150.587307,86.7313524 C141.003844,86.7313524 137.995685,86.5303736 140.642147,82.3227529 C142.207506,79.8582752 143.00563,76.7062907 143.00563,73.7503104 C143.00563,66.5906891 137.177633,60.7662835 130.002491,60.7662835 C122.820374,60.7662835 116.996363,66.5906891 116.996363,73.7503104 C116.996363,76.7062907 117.792494,79.8582752 119.356856,82.3227529 C122.009297,86.5303736 118.991174,86.7313524 109.418672,86.7313524 L107.761644,86.7313524 L86.6666667,86.7313524 L86.6666667,109.451907 C86.6666667,119.00835 86.8679413,122.022037 91.0827518,119.37051 C93.5448786,117.815411 96.7184416,117.023435 99.6658197,117.023435 C106.844947,117.023435 112.67394,122.832917 112.67394,130.007462 C112.67394,137.167083 106.844947,142.97955 99.6658197,142.97955 C96.7184416,142.97955 93.5448786,142.184589 91.0827518,140.634465 C86.8679413,137.974978 86.6666667,141.000605 86.6666667,150.555058 L86.6666667,173.271632 L107.761644,173.271632 L109.418672,173.271632 C118.991174,173.271632 122.009297,173.470621 119.356856,177.684212 C117.792494,180.141725 116.996363,183.299679 116.996363,186.255659 C116.996363,193.418265 122.820374,199.233716 130.002491,199.233716 C137.177633,199.233716 143.00563,193.418265 143.00563,186.255659 Z"
                fill-opacity="0.4" id="Stroke-25" stroke="#575757" stroke-linecap="round"
                stroke-linejoin="round"></path>
            <path class="brick6"
                d="M7.21200903,260 L86.4952843,260 C86.5899432,260 86.6666667,259.924336 86.6666667,259.829756 L86.6666667,237.27493 C86.6666667,227.70344 86.4643956,224.688829 82.2426103,227.333085 C79.8004116,228.905103 76.6178809,229.695593 73.6595423,229.695593 C66.4913753,229.695593 60.6653713,223.870464 60.6653713,216.703296 C60.6653713,209.532146 66.4913753,203.708013 73.6595423,203.708013 C76.6178809,203.708013 79.8004116,204.50348 82.2426103,206.068529 C86.4643956,208.724732 86.6666667,205.703152 86.6666667,196.130666 L86.6666667,173.57584 C86.6666667,173.482256 86.5899432,173.404601 86.4952843,173.404601 L63.918647,173.404601 C54.3311987,173.404601 51.3170612,173.205485 53.9754807,168.999167 C55.5408394,166.536106 56.3349774,163.367181 56.3349774,160.421264 C56.3349774,153.245136 50.5039914,147.43295 43.3308423,147.43295 C36.1576932,147.43295 30.3336821,153.245136 30.3336821,160.421264 C30.3336821,163.367181 31.1268237,166.536106 32.691186,168.999167 C35.3466162,173.205485 32.3274967,173.404601 22.7430376,173.404601 L21.0899949,173.404601 L0.171382364,173.404601 C0.0767235003,173.404601 0,173.482256 0,173.57584 L0,252.795 C0,256.774326 3.22936188,260 7.21200903,260 Z"
                fill-opacity="0.4" id="Stroke-29" stroke="#575757" stroke-linecap="round"
                stroke-linejoin="round"></path>
            <path class="brick7"
                d="M73.4957247,229.670304 C76.4625863,229.670304 79.654286,228.879155 82.1035207,227.306821 C86.3384684,224.660359 86.5403229,227.676489 86.5403229,237.255966 L86.5403229,260 L173.456679,260 L173.456679,237.255966 C173.456679,227.676489 173.661532,224.660359 177.891483,227.306821 C180.359704,228.879155 183.540412,229.670304 186.49728,229.670304 C193.6851,229.670304 199.534884,223.840314 199.534884,216.667165 C199.534884,209.49003 193.6851,203.661037 186.49728,203.661037 C183.540412,203.661037 180.359704,204.457168 177.891483,206.024519 C173.661532,208.682939 173.456679,205.657841 173.456679,196.077367 L173.456679,194.426317 L173.456679,173.333333 L150.64512,173.333333 C141.034047,173.333333 138.017222,173.532615 140.671309,177.752408 C142.241177,180.213538 143.0416,183.376141 143.0416,186.336472 C143.0416,193.509621 137.196813,199.333632 130.000999,199.333632 C122.797191,199.333632 116.9574,193.509621 116.9574,186.336472 C116.9574,183.376141 117.755825,180.213538 119.323695,177.752408 C121.983778,173.532615 118.957958,173.333333 109.357878,173.333333 L86.5403229,173.333333 L86.5403229,194.426317 L86.5403229,196.077367 C86.5403229,205.657841 86.3384684,208.682939 82.1035207,206.024519 C79.654286,204.457168 76.4625863,203.661037 73.4957247,203.661037 C66.3069059,203.661037 60.4651163,209.49003 60.4651163,216.667165 C60.4651163,223.840314 66.3069059,229.670304 73.4957247,229.670304 Z"
                fill-opacity="0.4" id="Stroke-33" stroke="#575757" stroke-linecap="round"
                stroke-linejoin="round"></path>
            <path class="brick3"
                d="M0,173.333333 L22.7824535,173.333333 C32.3835233,173.333333 35.4078753,173.134054 32.747843,168.923277 C31.1807695,166.459186 30.3862533,163.287652 30.3862533,160.339312 C30.3862533,153.157278 36.220358,147.339312 43.4059388,147.339312 C50.5915196,147.339312 56.4326113,153.157278 56.4326113,160.339312 C56.4326113,163.287652 55.637097,166.459186 54.0690254,168.923277 C51.4059986,173.134054 54.4253599,173.333333 64.0294242,173.333333 L86.8168683,173.333333 L86.8168683,150.583582 C86.8168683,141.01418 87.0174936,137.984134 91.2396088,140.648502 C93.7060028,142.200889 96.8850658,142.997011 99.837552,142.997011 C107.029122,142.997011 112.868217,137.176056 112.868217,130.005978 C112.868217,122.820955 107.029122,117.002989 99.837552,117.002989 C96.8850658,117.002989 93.7060028,117.796122 91.2396088,119.353491 C87.0174936,122.008891 86.8168683,118.990802 86.8168683,109.419407 L86.8168683,107.759408 L86.8168683,86.6666667 L64.0294242,86.6666667 C54.4253599,86.6666667 51.4059986,86.8689354 54.0690254,91.0846938 C55.637097,93.5467924 56.4326113,96.7173297 56.4326113,99.6716487 C56.4326113,106.845712 50.5915196,112.659692 43.4059388,112.659692 C36.220358,112.659692 30.3862533,106.845712 30.3862533,99.6716487 C30.3862533,96.7173297 31.1807695,93.5467924 32.747843,91.0846938 C35.4078753,86.8689354 32.3835233,86.6666667 22.7824535,86.6666667 L0,86.6666667 L0,173.333333 Z"
                fill-opacity="0.4" id="Stroke-37" stroke="#575757" stroke-linecap="round"
                stroke-linejoin="round"></path>
        </g>
    </g>
</svg>